<svg width="20" height="20" viewBox="0 0 20 20" fill="none" xmlns="http://www.w3.org/2000/svg">
<g id="Interface-Essential / Search / search">
<g id="Group 342">
<g id="search">
<path id="Oval 210" d="M11.1411 14.799C12.4236 14.2539 13.5156 13.3407 14.2791 12.175C15.0426 11.0092 15.4433 9.64339 15.4305 8.24991C15.4178 6.85643 14.9921 5.49788 14.2073 4.34634C13.4225 3.1948 12.3138 2.3019 11.0216 1.78043C9.72926 1.25895 8.31134 1.13231 6.94712 1.41666C5.5829 1.70101 4.33365 2.3835 3.35731 3.37784C2.38097 4.37218 1.7214 5.63365 1.46201 7.00284C1.20262 8.37202 1.35504 9.78743 1.90003 11.07C2.26192 11.9216 2.78804 12.6936 3.44831 13.3419C4.10858 13.9903 4.89009 14.5023 5.74821 14.8485C6.60632 15.1948 7.52422 15.3688 8.44953 15.3603C9.37484 15.3518 10.2894 15.1609 11.1411 14.799V14.799Z" stroke="black" stroke-width="2" stroke-linecap="round" stroke-linejoin="round"/>
<path id="Shape 1557" d="M13.3671 13.2891L18.832 18.7549" stroke="black" stroke-width="2" stroke-linecap="round" stroke-linejoin="round"/>
</g>
</g>
</g>
</svg>
